P2
64 64
255
49 116 125 130 135 141 148 161 173 178 184 187 192 194 195 196 197 196 198 198 
200 201 201 203 204 205 205 205 205 205 205 205 205 205 205 205 205 205 205 205 
205 205 205 205 205 205 205 205 205 205 205 205 205 205 205 205 205 205 205 205 
205 205 205 205 99 122 128 133 139 146 150 164 176 181 185 190 193 195 195 195 
197 197 198 198 200 201 202 204 205 205 205 205 205 205 205 205 205 205 205 205 
205 205 205 205 205 205 205 205 205 205 205 205 205 205 205 205 205 205 205 205 
205 205 205 205 205 205 205 205 112 124 130 135 143 149 155 166 177 183 187 192 
192 196 197 196 198 198 198 200 201 202 204 204 205 205 205 205 205 205 205 205 
205 205 205 205 205 205 205 205 205 205 205 205 205 205 205 205 205 205 205 205 
205 205 205 205 205 205 205 205 205 205 205 205 117 126 133 140 147 152 160 170 
181 185 189 192 196 197 197 197 198 198 199 200 201 202 203 204 205 205 205 205 
205 205 205 205 205 205 205 205 205 205 205 205 205 205 205 205 205 205 205 205 
205 205 205 205 205 205 205 205 205 205 205 205 205 205 205 205 125 131 137 142 
151 155 164 174 183 187 191 194 197 197 198 199 199 198 200 201 202 204 205 205 
205 205 205 205 205 205 205 205 205 205 205 205 205 205 205 205 205 205 205 205 
205 205 205 205 205 205 205 205 205 205 205 205 205 205 205 205 205 205 205 205 
128 134 141 148 152 156 167 179 186 190 193 196 197 198 199 199 199 199 199 201 
203 204 205 205 205 205 205 205 205 205 205 205 205 205 205 205 205 205 205 205 
205 205 205 205 205 205 205 205 205 205 205 205 205 205 205 205 205 205 205 205 
205 205 205 205 130 139 145 154 155 159 170 183 187 191 195 196 198 200 199 199 
199 199 201 201 203 205 205 205 205 205 205 205 205 205 205 205 205 205 205 205 
205 205 205 205 205 205 205 205 205 205 205 205 205 205 205 205 205 205 205 205 
205 205 205 205 205 205 205 205 134 118 151 156 159 162 173 184 189 193 195 199 
199 199 200 199 199 200 202 203 204 205 205 205 205 205 205 205 205 146 196 148 
140 171 193 180 205 205 205 205 205 205 205 205 205 205 205 205 205 205 205 205 
205 205 205 205 205 205 205 205 205 205 205 205 136 121 195 157 160 166 177 186 
190 193 197 199 200 200 201 200 200 202 203 205 205 205 205 205 205 204 196 205 
176 171 187 125 83 93 61 64 102 105 146 131 161 205 205 205 205 205 205 205 
205 205 205 205 205 205 205 205 205 205 205 205 205 205 205 205 140 110 138 157 
162 169 181 188 192 195 197 199 201 201 201 200 200 203 204 205 205 205 205 205 
190 162 156 90 41 145 205 9 205 205 92 58 79 76 100 76 90 97 205 205 
205 205 205 205 205 205 205 205 205 205 205 205 205 205 205 205 205 205 205 205 
142 149 155 159 163 174 187 190 194 196 199 201 202 202 202 201 201 205 205 205 
205 205 205 205 175 121 73 56 63 33 205 205 110 199 30 205 62 204 52 67 
64 133 89 205 205 205 205 205 205 205 205 205 205 205 205 205 205 205 205 205 
205 205 205 205 145 152 158 162 166 175 189 192 195 198 201 202 204 205 204 201 
204 205 205 205 205 205 205 203 84 59 33 70 45 32 205 205 205 201 121 50 
59 63 48 47 60 60 75 147 192 205 205 205 205 205 205 205 205 205 205 205 
205 205 205 205 205 205 205 205 146 153 158 162 166 178 190 192 195 198 201 202 
204 205 204 202 205 205 205 205 205 205 205 101 61 57 52 45 18 60 205 115 
16 63 59 76 82 40 34 35 63 66 71 84 67 86 205 205 205 205 205 205 
205 205 205 205 205 205 205 205 205 205 205 205 149 153 160 163 170 182 191 192 
196 198 200 202 203 205 203 201 205 204 205 205 205 205 201 67 47 36 53 38 
43 195 205 23 149 119 69 88 53 41 36 29 33 38 52 51 65 79 205 205 
205 205 205 205 205 205 205 205 205 205 205 205 205 205 205 205 148 154 160 164 
172 183 191 193 197 199 201 201 203 203 201 200 204 202 204 205 205 205 192 38 
52 49 39 45 101 29 190 175 193 194 205 122 85 95 70 38 44 39 62 62 
205 95 192 205 205 205 205 205 205 205 205 205 205 205 205 205 205 205 205 205 
153 118 162 166 177 186 190 193 194 198 200 200 201 201 199 200 202 201 202 205 
205 205 146 40 48 62 35 62 116 197 205 175 191 205 205 205 204 168 41 46 
57 43 53 41 149 71 88 205 205 205 205 205 205 205 205 205 205 205 205 205 
205 205 205 205 40 163 158 167 177 186 188 168 193 196 197 199 200 199 199 199 
200 200 203 203 204 205 102 66 31 104 73 90 89 124 205 156 177 112 115 204 
205 205 161 58 59 53 34 52 31 205 161 199 205 205 205 205 205 205 205 205 
205 205 205 205 205 205 205 205 156 71 163 166 176 182 179 53 190 195 197 198 
199 198 198 199 198 199 202 201 201 200 205 195 91 73 151 178 189 205 205 205 
185 112 205 148 205 205 196 163 170 52 40 43 191 192 205 205 205 205 205 205 
205 205 205 205 205 205 205 205 205 205 205 205 159 45 158 164 173 179 43 42 
190 193 197 196 198 198 57 161 197 198 200 200 202 192 205 180 101 100 183 181 
198 88 205 205 189 192 185 205 205 205 205 186 169 126 60 59 205 72 35 45 
205 205 205 205 205 205 205 205 205 205 205 205 205 205 205 205 83 89 158 163 
172 177 108 149 50 53 70 172 197 199 91 201 196 198 199 199 196 205 205 185 
174 200 170 205 205 130 160 102 133 173 192 166 205 205 192 159 178 139 52 30 
174 205 205 205 204 205 205 205 205 205 205 205 205 205 205 205 205 205 205 205 
63 148 156 163 171 176 37 186 188 196 198 195 198 135 42 195 193 194 196 198 
195 192 194 205 187 170 205 205 205 205 199 159 159 141 205 141 205 43 188 139 
64 149 39 39 44 116 190 196 205 205 205 205 205 205 205 205 205 205 205 205 
205 205 205 205 200 154 154 163 169 100 35 185 186 192 191 194 193 60 82 191 
192 192 191 197 196 205 205 160 175 205 205 205 205 205 188 78 205 205 123 196 
76 171 152 103 144 133 49 42 56 179 205 192 167 70 56 47 77 83 82 126 
205 205 205 205 205 205 205 205 124 102 154 163 167 42 139 180 183 189 184 191 
188 87 191 187 187 189 192 196 197 127 194 183 187 200 205 205 205 205 203 205 
196 199 205 205 202 148 144 146 156 43 28 54 164 187 205 205 41 196 42 55 
44 49 53 72 87 107 189 205 205 205 205 205 125 121 153 161 160 45 137 45 
40 57 118 186 187 30 186 184 184 186 192 197 190 133 191 200 200 205 205 205 
205 205 203 204 200 205 203 2 131 154 170 110 121 54 40 205 205 205 162 56 
42 47 54 43 52 56 60 60 69 90 54 54 198 193 205 205 110 138 152 160 
107 27 170 176 182 184 187 186 26 56 185 180 181 187 192 194 191 180 182 205 
205 205 205 205 205 205 205 178 162 175 160 27 8 197 113 128 205 157 87 205 
102 126 69 61 69 68 61 72 72 75 75 70 69 46 47 45 171 25 205 205 
98 144 152 156 33 53 205 168 133 145 105 183 47 184 179 178 181 186 191 192 
177 182 180 202 205 205 205 205 185 205 205 205 205 194 165 134 175 205 149 123 
151 205 205 133 205 205 42 39 70 95 124 130 126 129 109 109 103 105 82 55 
71 143 95 126 170 179 186 171 59 59 59 61 54 39 48 39 40 47 50 51 
41 82 112 119 176 181 185 202 205 203 205 205 205 191 171 185 199 166 119 180 
176 205 146 176 17 148 205 183 20 27 51 92 141 190 161 178 200 194 199 188 
167 163 112 101 67 149 205 205 113 174 170 68 61 56 59 55 48 35 43 50 
45 39 40 38 35 38 36 49 179 181 150 177 201 205 202 205 205 186 150 136 
139 167 174 163 170 146 180 176 65 20 205 49 33 25 132 137 183 181 205 203 
191 193 205 198 195 200 154 127 71 45 40 205 93 159 62 62 60 60 57 55 
42 40 38 45 45 47 56 49 50 49 34 150 182 183 152 147 178 205 204 205 
205 205 187 173 149 115 181 155 135 145 172 172 175 198 205 60 57 115 166 165 
205 199 193 198 201 202 205 205 205 194 175 147 100 52 35 205 73 62 56 55 
57 49 54 49 35 43 37 36 40 47 51 50 47 54 140 168 188 171 156 154 
173 205 205 205 205 203 189 168 140 134 159 125 168 165 169 168 173 151 123 170 
99 158 204 179 179 191 201 205 205 205 205 205 205 199 203 183 168 76 132 205 
64 47 51 52 47 51 56 49 51 51 52 44 35 51 51 48 51 32 142 178 
187 165 171 157 147 127 146 144 189 205 196 164 167 152 136 165 162 163 166 169 
156 60 158 205 130 173 162 179 191 205 204 205 205 205 205 204 194 194 189 193 
193 205 205 125 59 52 49 53 58 56 30 49 52 49 50 52 45 54 47 49 
46 117 145 185 185 174 187 181 144 62 92 106 134 141 172 145 136 109 157 157 
160 162 165 160 46 34 205 60 146 70 99 107 115 147 205 205 205 197 140 133 
105 111 97 174 187 205 202 73 51 54 42 47 56 47 51 55 46 47 48 49 
55 45 48 51 54 50 155 191 181 176 195 197 191 171 125 37 68 96 55 69 
174 151 153 156 157 161 163 161 45 21 29 105 149 174 184 186 195 175 204 205 
205 190 186 198 204 199 187 154 85 185 205 119 31 43 37 60 47 51 59 49 
51 49 49 52 43 48 51 47 87 123 153 187 181 186 177 173 173 155 138 148 
130 108 32 29 44 104 147 152 156 158 158 105 28 28 18 126 162 152 163 171 
174 190 181 205 205 186 191 175 186 184 188 185 177 138 169 81 33 43 45 53 
202 160 60 53 49 49 51 38 45 47 50 35 40 160 168 184 178 179 183 178 
171 171 170 168 145 110 21 26 38 46 57 101 154 154 149 92 32 22 14 145 
117 47 65 75 168 149 186 205 173 174 143 148 158 175 156 168 181 183 192 84 
46 43 48 52 205 193 59 50 45 48 38 42 46 45 43 36 30 153 189 182 
174 179 180 180 189 188 178 160 129 35 25 25 50 46 62 70 79 93 84 75 
48 16 19 144 155 156 173 176 195 141 152 105 205 181 149 151 162 159 120 93 
164 205 197 150 38 48 45 57 194 199 80 46 45 36 39 40 43 45 39 62 
33 173 190 188 184 183 189 189 187 179 165 137 34 27 24 31 29 53 65 73 
79 73 83 73 59 31 48 164 170 184 77 205 87 1 39 2 83 205 183 179 
177 178 172 184 188 205 184 159 42 47 46 63 178 188 55 48 34 34 37 41 
40 42 39 22 42 186 200 196 193 198 190 180 174 165 69 16 31 37 26 33 
36 24 53 73 73 81 59 59 49 51 133 171 187 205 205 205 175 36 32 70 
205 205 195 188 186 200 188 196 190 189 186 162 49 51 56 105 202 205 65 33 
31 34 34 36 37 38 30 38 43 72 183 185 201 189 145 63 30 25 49 32 
34 31 21 37 34 26 38 65 73 76 59 56 42 46 157 188 193 205 184 173 
154 112 114 170 201 205 193 205 202 201 205 205 205 195 170 145 24 45 40 186 
204 183 127 29 30 31 33 35 37 35 63 30 36 38 40 43 47 44 45 43 
38 36 34 33 33 27 31 27 35 28 22 39 62 66 56 45 47 25 150 184 
201 204 196 184 179 201 196 199 154 161 205 205 205 205 201 203 190 190 178 96 
23 29 37 182 188 176 153 31 29 32 33 35 35 31 34 40 27 31 37 46 
47 44 43 42 45 37 32 37 29 32 34 27 35 34 23 24 52 52 52 41 
13 13 102 180 199 204 195 175 166 176 163 205 201 191 205 205 205 205 204 205 
205 187 163 115 21 35 182 192 204 204 184 174 179 161 166 163 141 30 35 34 
38 38 40 46 45 45 38 45 43 40 38 32 34 32 29 25 30 27 37 49 
54 49 16 10 14 15 31 177 195 189 166 156 143 155 149 159 167 191 198 205 
205 203 202 200 201 200 151 123 178 205 165 183 189 200 201 205 186 187 179 172 
160 16 30 152 38 39 44 42 40 55 45 42 42 38 34 33 33 30 27 28 
24 31 41 50 44 26 16 23 19 25 23 190 188 196 193 171 153 168 171 160 
155 140 152 197 205 203 205 197 197 202 112 129 195 175 177 191 195 205 205 197 
156 151 164 168 144 18 31 138 39 39 38 33 150 41 40 39 38 38 35 37 
38 34 27 31 27 36 52 52 52 30 28 22 29 34 36 167 187 205 182 199 
205 197 198 205 190 199 194 198 205 197 193 193 183 204 105 19 205 200 192 199 
205 200 205 186 166 168 158 150 119 23 31 33 37 35 34 138 42 41 41 42 
39 38 40 35 36 35 30 31 31 40 45 57 53 52 61 50 45 42 36 167 
185 185 180 201 196 205 191 205 202 200 202 205 205 205 205 189 202 152 25 32 
205 201 197 198 198 188 205 181 135 149 171 163 148 27 35 41 40 41 76 44 
44 46 41 41 41 37 40 34 35 32 33 30 36 52 47 56 56 40 64 57 
53 32 21 33 160 174 178 181 184 181 187 193 197 205 205 193 194 193 192 175 
160 37 40 35 205 201 199 200 205 199 190 197 156 171 170 137 180 173 195 184 
175 37 40 41 42 41 41 41 38 42 39 34 34 33 30 15 67 67 53 57 
57 50 57 46 29 26 24 29 31 155 190 188 191 199 205 201 205 205 192 203 
185 190 200 154 85 49 46 34 134 200 198 198 197 195 181 167 162 179 197 189 
183 202 182 176 166 43 40 40 39 44 41 37 38 30 33 36 36 28 16 20 
50 40 48 47 53 57 55 30 28 38 32 28 28 99 147 183 196 205 201 205 
201 196 190 179 176 164 148 115 33 48 40 36 18 18 30 70 173 189 181 167 
136 48 41 37 42 39 41 165 183 42 39 40 44 38 33 35 33 35 37 36 
29 17 20 29 38 54 47 31 27 64 54 16 30 31 40 34 21 75 144 155 
151 154 161 176 167 156 151 149 150 155 148 70 37 45 38 37 12 26 32 42 
46 47 44 43 41 38 36 34 38 32 42 74 40 39 41 40 33 32 31 31 
35 36 34 34 19 22 23 31 47 41 21 33 50 63 56 40 31 35 31 20 
44 66 152 159 170 175 180 178 178 176 174 176 174 165 134 26 55 43 36 35 
34 31 38 42 45 41 41 42 38 36 35 34 34 34 34 35 39 40 36 27 
28 31 33 34 38 38 32 14 18 23 14 23 19 23 18 23 35 37 50 47 
28 9 3 4 19 30 158 162 177 186 188 186 189 192 188 184 164 137 48 27 
52 54 35 40 37 39 43 43 42 42 42 41 37 37 35 34 30 36 34 35 
35 30 24 34 38 37 33 34 36 30 8 23 22 13 15 10 19 20 21 23 
27 26 34 35 20 5 9 3 4 35 165 166 178 185 188 184 181 185 176 157 
95 31 14 50 54 37 42 42 44 42 41 40 40 40 39 38 36 36 32 35 
33 34 30 30 28 33 41 40 34 30 31 34 22 21 17 16 52 15 24 21 
25 47 40 33 24 20 25 26 36 37 23 45 20 63 172 176 171 161 167 161 
160 116 135 75 27 21 31 53 41 38 44 23 42 43 41 40 40 40 38 37 
36 33 31 32 35 31 31 32 43 172 42 34 26 31 28 16 21 21 41 49 
48 47 26 18 31 15 29 29 31 20 15 17 19 20 29 29 67 105 180 178 
161 160 149 158 157 128 61 28 20 22 42 40 40 38 29 15 42 41 40 39 
40 40 38 38 35 31 30 32 33 36 38 35 48 200 159 35 36 23 8 20 
25 60 48 60 32 60 49 30 44 35 28 36 31 27 13 33 22 39 59 67 
98 128 178 171 158 152 145 142 115 72 31 30 14 23 18 26 29 35 25 34 
36 39 40 41 42 40 40 38 29 28 25 32 34 35 35 24 36 205 195 37 
19 6 22 23 32 51 41 18 49 45 42 42 41 34 28 25 37 41 46 47 
33 62 72 132 118 158 163 140 145 133 136 121 81 69 28 18 8 33 15 18 
22 30 39 44 44 43 43 43 42 42 40 40 36 34 28 36 30 18 27 35 
66 205 205 17 13 25 24 20 13 45 53 52 50 36 43 35 37 43 30 52 
48 49 44 35 48 57 128 144 143 163 117 141 129 117 118 123 127 83 25 14 
6 27 24 12 10 18 18 30 37 39 37 38 35 34 32 35 36 31 20 22 
29 31 36 39 198 205 190 24 29 17 7 6 8 43 53 41 40 42 51 47 
58 61 62 55 60 37 64 56 63 77 134 145 148 152 133 115 111 105 129 137 
133 75 27 15 9 25 14 13 15 33 42 54 41 42 39 35 32 25 20 21 
26 32 32 31 29 26 28 185 205 205 66 31 26 22 17 12 24 45 45 38 
50 55 59 60 61 64 64 64 61 58 56 57 75 84 118 135 134 121 107 108 
82 119 121 101 51 38 25 15 18 25 11 7 31 32 52 35 30 30 30 31 
31 32 31 31 29 24 24 23 22 20 91 205 205 205 39 27 22 18 15 11 
103 48 36 53 53 59 55 59 61 60 62 63 69 63 68 68 61 82 91 91 
91 85 87 69 62 55 49 42 34 37 21 11 10 3 6 21 41 40 33 44 
32 34 33 35 34 33 33 34 33 32 25 18 21 38 204 205 205 148 34 24 
20 14 10 108 126 47 122 194 191 67 58 54 61 62 65 65 65 65 77 85 
67 58 87 81 80 83 71 45 43 45 51 55 46 22 17 5 3 4 7 56 
55 27 38 56 40 38 37 36 33 29 23 20 23 23 23 23 31 190 205 205 
188 144 32 20 18 17 96 152 184 205 201 201 205 60 59 52 53 62 64 68 
72 79 85 89 92 80 55 46 70 83 74 47 37 43 50 29 22 14 19 8 
4 4 27 51 46 35 55 40 32 33 31 31 28 27 26 21 13 8 17 29 
178 201 204 173 187 183 33 27 29 131 188 195 203 205 205 176 58 59 59 58 
50 49 63 68 74 77 78 80 80 79 86 89 84 83 77 63 23 37 21 16 
21 19 14 5 14 10 16 16 37 41 23 25 21 21 19 19 21 23 23 22 
18 17 18 125 181 186 177 177 157 151 139 169 182 200 205 205 205 195 70 96 
71 57 59 61 61 55 48 57 67 68 73 71 72 65 67 62 62 61 64 55 
21 78 71 44 47 16 20 9 20 24 10 41 32 20 28 39 
